<?xml version="1.0" standalone="no"?>
<!DOCTYPE svg PUBLIC "-//W3C//DTD SVG 20010904//EN"
 "http://www.w3.org/TR/2001/REC-SVG-20010904/DTD/svg10.dtd">
<svg version="1.0" xmlns="http://www.w3.org/2000/svg"
 width="512.000000pt" height="512.000000pt" viewBox="0 0 512.000000 512.000000"
 preserveAspectRatio="xMidYMid meet">
<metadata>
Created by potrace 1.11, written by Peter Selinger 2001-2013
</metadata>
<g transform="translate(0.000000,512.000000) scale(0.100000,-0.100000)"
fill="#000000" stroke="none">
<path d="M1620 4107 c-48 -15 -113 -83 -128 -133 -7 -26 -12 -107 -12 -216 0
-170 1 -176 28 -229 20 -40 39 -61 76 -84 l49 -30 591 -6 c566 -5 594 -6 668
-27 185 -51 280 -105 403 -227 76 -75 98 -105 138 -185 73 -146 90 -225 91
-410 0 -166 -11 -229 -61 -353 -78 -192 -244 -352 -446 -429 -164 -63 -151
-62 -793 -67 l-591 -6 -49 -30 c-37 -23 -56 -44 -76 -84 -27 -53 -28 -59 -28
-229 0 -204 8 -240 65 -298 67 -67 59 -66 715 -61 660 5 688 7 928 86 534 175
919 588 1038 1111 83 365 39 740 -124 1065 -236 472 -717 787 -1291 845 -142
14 -1144 12 -1191 -3z"/>
</g>
</svg>
